<?xml version="1.0" encoding="UTF-8" standalone="no"?>
<!DOCTYPE svg PUBLIC "-//W3C//DTD SVG 1.1//EN"
 "http://www.w3.org/Graphics/SVG/1.1/DTD/svg11.dtd">
<!-- Generated by graphviz version 2.40.1 (20161225.0304)
 -->
<!-- Pages: 1 -->
<svg width="651pt" height="968pt"
 viewBox="0.00 0.00 650.93 968.39" xmlns="http://www.w3.org/2000/svg" xmlns:xlink="http://www.w3.org/1999/xlink">
<g id="graph0" class="graph" transform="scale(1 1) rotate(0) translate(4 964.3906)">
<polygon fill="#ffffff" stroke="transparent" points="-4,4 -4,-964.3906 646.9296,-964.3906 646.9296,4 -4,4"/>
<!-- 0&#45;&gt;8 -->
<g id="edge1" class="edge">
<title>0&#45;&gt;8</title>
<path fill="none" stroke="#000000" d="M313.3075,-103.7547C326.7393,-114.7347 345.5425,-130.1055 360.6427,-142.4494"/>
<polygon fill="#000000" stroke="#000000" points="358.6356,-145.3293 368.5931,-148.9485 363.066,-139.9097 358.6356,-145.3293"/>
<text text-anchor="middle" x="309.3776" y="-127.3021" font-family="Times,serif" font-size="14.00" fill="#000000">next_char</text>
</g>
<!-- 8&#45;&gt;4 -->
<g id="edge8" class="edge">
<title>8&#45;&gt;4</title>
<path fill="none" stroke="#000000" d="M379.6406,-180.9488C376.066,-191.2 371.5014,-204.2903 367.4694,-215.853"/>
<polygon fill="#000000" stroke="#000000" points="364.0894,-214.9163 364.1016,-225.5112 370.6991,-217.2212 364.0894,-214.9163"/>
<text text-anchor="middle" x="340.1195" y="-185.8009" font-family="Times,serif" font-size="14.00" fill="#000000">end_of_line</text>
</g>
<!-- 3&#45;&gt;4 -->
<g id="edge2" class="edge">
<title>3&#45;&gt;4</title>
<path fill="none" stroke="#000000" d="M286.7419,-223.0189C292.4377,-224.67 298.6108,-226.4595 304.8591,-228.2707"/>
<polygon fill="#000000" stroke="#000000" points="304.1028,-231.6955 314.6819,-231.1181 306.0518,-224.9723 304.1028,-231.6955"/>
<text text-anchor="middle" x="321.851" y="-213.0448" font-family="Times,serif" font-size="14.00" fill="#000000">next_line</text>
</g>
<!-- 4&#45;&gt;6 -->
<g id="edge3" class="edge">
<title>4&#45;&gt;6</title>
<path fill="none" stroke="#000000" d="M350.2532,-225.7501C345.8266,-215.2566 340.1443,-201.7866 335.1844,-190.0291"/>
<polygon fill="#000000" stroke="#000000" points="338.3431,-188.5118 331.2314,-180.6585 331.8935,-191.2326 338.3431,-188.5118"/>
<text text-anchor="middle" x="370.3163" y="-212.0896" font-family="Times,serif" font-size="14.00" fill="#000000">next_char</text>
</g>
<!-- 4&#45;&gt;11 -->
<g id="edge4" class="edge">
<title>4&#45;&gt;11</title>
<path fill="none" stroke="#000000" d="M364.0822,-261.6901C367.8828,-272.6066 372.8049,-286.7447 377.0947,-299.0664"/>
<polygon fill="#000000" stroke="#000000" points="373.9175,-300.5855 380.5109,-308.8788 380.5283,-298.284 373.9175,-300.5855"/>
<text text-anchor="middle" x="344.538" y="-284.5782" font-family="Times,serif" font-size="14.00" fill="#000000">next_line</text>
</g>
<!-- 6&#45;&gt;5 -->
<g id="edge6" class="edge">
<title>6&#45;&gt;5</title>
<path fill="none" stroke="#000000" d="M334.1661,-146.1783C341.3637,-134.376 351.0951,-118.4188 359.2405,-105.0623"/>
<polygon fill="#000000" stroke="#000000" points="362.3571,-106.6739 364.5756,-96.314 356.3808,-103.0293 362.3571,-106.6739"/>
<text text-anchor="middle" x="374.3008" y="-129.8203" font-family="Times,serif" font-size="14.00" fill="#000000">next_char</text>
</g>
<!-- 11&#45;&gt;10 -->
<g id="edge10" class="edge">
<title>11&#45;&gt;10</title>
<path fill="none" stroke="#000000" d="M413.3636,-310.7771C418.9833,-307.3631 424.9376,-303.7459 430.6296,-300.2879"/>
<polygon fill="#000000" stroke="#000000" points="432.5433,-303.2207 439.2726,-295.0373 428.9088,-297.2381 432.5433,-303.2207"/>
<text text-anchor="middle" x="394.3991" y="-292.9325" font-family="Times,serif" font-size="14.00" fill="#000000">next_char</text>
</g>
<!-- 11&#45;&gt;18 -->
<g id="edge11" class="edge">
<title>11&#45;&gt;18</title>
<path fill="none" stroke="#000000" d="M378.2487,-344.8266C373.2651,-355.2728 366.8775,-368.6618 361.2824,-380.3897"/>
<polygon fill="#000000" stroke="#000000" points="357.9641,-379.2169 356.8171,-389.7495 364.2819,-382.231 357.9641,-379.2169"/>
<text text-anchor="middle" x="343.7151" y="-366.8082" font-family="Times,serif" font-size="14.00" fill="#000000">next_line</text>
</g>
<!-- 5&#45;&gt;7 -->
<g id="edge5" class="edge">
<title>5&#45;&gt;7</title>
<path fill="none" stroke="#000000" d="M361.8759,-63.5851C356.4937,-57.0476 350.1331,-49.3216 344.1923,-42.1057"/>
<polygon fill="#000000" stroke="#000000" points="346.5531,-39.4665 337.495,-33.9708 341.1489,-43.9157 346.5531,-39.4665"/>
<text text-anchor="middle" x="380.6316" y="-40.2454" font-family="Times,serif" font-size="14.00" fill="#000000">next_char</text>
</g>
<!-- 7&#45;&gt;0 -->
<g id="edge7" class="edge">
<title>7&#45;&gt;0</title>
<path fill="none" stroke="#000000" d="M317.3331,-35.6952C314.1034,-43.8439 310.2006,-53.6908 306.6194,-62.7263"/>
<polygon fill="#000000" stroke="#000000" points="303.3376,-61.5075 302.9067,-72.0936 309.8451,-64.0868 303.3376,-61.5075"/>
<text text-anchor="middle" x="284.3787" y="-53.4108" font-family="Times,serif" font-size="14.00" fill="#000000">next_char</text>
</g>
<!-- 10&#45;&gt;12 -->
<g id="edge9" class="edge">
<title>10&#45;&gt;12</title>
<path fill="none" stroke="#000000" d="M480.5924,-271.6943C489.1597,-267.1959 499.1938,-261.9273 508.4983,-257.0419"/>
<polygon fill="#000000" stroke="#000000" points="510.2516,-260.0745 517.4782,-252.3268 506.9974,-253.8768 510.2516,-260.0745"/>
<text text-anchor="middle" x="466.9478" y="-251.7681" font-family="Times,serif" font-size="14.00" fill="#000000">next_char</text>
</g>
<!-- 12&#45;&gt;13 -->
<g id="edge12" class="edge">
<title>12&#45;&gt;13</title>
<path fill="none" stroke="#000000" d="M565.8235,-244.4865C570.1201,-245.0274 574.6285,-245.5951 579.1062,-246.1588"/>
<polygon fill="#000000" stroke="#000000" points="579.0251,-249.6761 589.384,-247.4528 579.8996,-242.731 579.0251,-249.6761"/>
<text text-anchor="middle" x="600.0623" y="-232.7226" font-family="Times,serif" font-size="14.00" fill="#000000">next_char</text>
</g>
<!-- 18&#45;&gt;19 -->
<g id="edge16" class="edge">
<title>18&#45;&gt;19</title>
<path fill="none" stroke="#000000" d="M289.0102,-404.6194C288.9212,-404.6149 288.8323,-404.6105 288.7434,-404.606"/>
<polygon fill="#000000" stroke="#000000" points="290.859,-401.2082 280.6955,-404.2005 290.5067,-408.1994 290.859,-401.2082"/>
<text text-anchor="middle" x="261.2793" y="-408.8127" font-family="Times,serif" font-size="14.00" fill="#000000">next_char</text>
</g>
<!-- 18&#45;&gt;25 -->
<g id="edge17" class="edge">
<title>18&#45;&gt;25</title>
<path fill="none" stroke="#000000" d="M348.006,-425.6751C347.7975,-438.577 347.5129,-456.1843 347.2748,-470.9184"/>
<polygon fill="#000000" stroke="#000000" points="343.7735,-470.9755 347.1114,-481.0308 350.7726,-471.0887 343.7735,-470.9755"/>
<text text-anchor="middle" x="321.5899" y="-452.4967" font-family="Times,serif" font-size="14.00" fill="#000000">next_line</text>
</g>
<!-- 13&#45;&gt;14 -->
<g id="edge13" class="edge">
<title>13&#45;&gt;14</title>
<path fill="none" stroke="#000000" d="M603.4561,-267.0079C598.2986,-273.7115 592.2034,-281.6339 586.5106,-289.0333"/>
<polygon fill="#000000" stroke="#000000" points="583.4167,-287.3149 580.0929,-297.3749 588.9647,-291.5833 583.4167,-287.3149"/>
<text text-anchor="middle" x="567.3858" y="-282.2206" font-family="Times,serif" font-size="14.00" fill="#000000">next_char</text>
</g>
<!-- 14&#45;&gt;15 -->
<g id="edge14" class="edge">
<title>14&#45;&gt;15</title>
<path fill="none" stroke="#000000" d="M542.2163,-320.5131C534.1874,-322.6607 525.1617,-325.0751 516.5799,-327.3706"/>
<polygon fill="#000000" stroke="#000000" points="515.5516,-324.0225 506.7957,-329.9878 517.3605,-330.7848 515.5516,-324.0225"/>
<text text-anchor="middle" x="515.5994" y="-311.3418" font-family="Times,serif" font-size="14.00" fill="#000000">next_char</text>
</g>
<!-- 15&#45;&gt;11 -->
<g id="edge15" class="edge">
<title>15&#45;&gt;11</title>
<path fill="none" stroke="#000000" d="M455.0098,-333.9502C454.5575,-333.9036 454.102,-333.8566 453.6436,-333.8094"/>
<polygon fill="#000000" stroke="#000000" points="453.9701,-330.3246 443.664,-332.7809 453.2524,-337.2877 453.9701,-330.3246"/>
<text text-anchor="middle" x="420.8912" y="-338.0798" font-family="Times,serif" font-size="14.00" fill="#000000">end_of_line</text>
</g>
<!-- 19&#45;&gt;20 -->
<g id="edge18" class="edge">
<title>19&#45;&gt;20</title>
<path fill="none" stroke="#000000" d="M227.3492,-397.898C217.4191,-396.0201 205.9147,-393.8444 195.2074,-391.8196"/>
<polygon fill="#000000" stroke="#000000" points="195.7396,-388.3582 185.2634,-389.939 194.4388,-395.2363 195.7396,-388.3582"/>
<text text-anchor="middle" x="183.6808" y="-399.0588" font-family="Times,serif" font-size="14.00" fill="#000000">next_char</text>
</g>
<!-- 25&#45;&gt;24 -->
<g id="edge23" class="edge">
<title>25&#45;&gt;24</title>
<path fill="none" stroke="#000000" d="M287.2688,-501.4133C287.1804,-501.4168 287.092,-501.4203 287.0037,-501.4238"/>
<polygon fill="#000000" stroke="#000000" points="288.8627,-497.8475 279.0087,-501.7395 289.139,-504.8421 288.8627,-497.8475"/>
<text text-anchor="middle" x="314.7338" y="-505.6185" font-family="Times,serif" font-size="14.00" fill="#000000">next_char</text>
</g>
<!-- 25&#45;&gt;31 -->
<g id="edge24" class="edge">
<title>25&#45;&gt;31</title>
<path fill="none" stroke="#000000" d="M352.8015,-517.2387C356.2909,-527.8423 360.7633,-541.4329 364.6808,-553.3375"/>
<polygon fill="#000000" stroke="#000000" points="361.3568,-554.4334 367.8073,-562.8382 368.006,-552.2452 361.3568,-554.4334"/>
<text text-anchor="middle" x="332.6907" y="-539.4881" font-family="Times,serif" font-size="14.00" fill="#000000">next_line</text>
</g>
<!-- 20&#45;&gt;21 -->
<g id="edge19" class="edge">
<title>20&#45;&gt;21</title>
<path fill="none" stroke="#000000" d="M165.2439,-367.4177C166.4747,-363.9785 167.7924,-360.2966 169.105,-356.6289"/>
<polygon fill="#000000" stroke="#000000" points="172.4303,-357.7243 172.5046,-347.1298 165.8397,-355.3656 172.4303,-357.7243"/>
<text text-anchor="middle" x="139.577" y="-349.4233" font-family="Times,serif" font-size="14.00" fill="#000000">next_char</text>
</g>
<!-- 21&#45;&gt;22 -->
<g id="edge20" class="edge">
<title>21&#45;&gt;22</title>
<path fill="none" stroke="#000000" d="M203.2361,-337.3557C213.248,-340.5734 225.0096,-344.3536 235.8462,-347.8365"/>
<polygon fill="#000000" stroke="#000000" points="234.8702,-351.1991 245.4615,-350.9268 237.0121,-344.5348 234.8702,-351.1991"/>
<text text-anchor="middle" x="233.3399" y="-329.9961" font-family="Times,serif" font-size="14.00" fill="#000000">next_char</text>
</g>
<!-- 22&#45;&gt;18 -->
<g id="edge21" class="edge">
<title>22&#45;&gt;18</title>
<path fill="none" stroke="#000000" d="M289.7228,-371.1147C296.9133,-375.5943 305.2707,-380.8009 313.3818,-385.854"/>
<polygon fill="#000000" stroke="#000000" points="311.6812,-388.9182 322.0196,-391.2353 315.3826,-382.9768 311.6812,-388.9182"/>
<text text-anchor="middle" x="334.9878" y="-382.6844" font-family="Times,serif" font-size="14.00" fill="#000000">end_of_line</text>
</g>
<!-- 24&#45;&gt;26 -->
<g id="edge22" class="edge">
<title>24&#45;&gt;26</title>
<path fill="none" stroke="#000000" d="M225.2114,-506.0432C215.4935,-507.2194 204.3304,-508.5705 193.8827,-509.8351"/>
<polygon fill="#000000" stroke="#000000" points="193.2605,-506.3847 183.7536,-511.061 194.1017,-513.334 193.2605,-506.3847"/>
<text text-anchor="middle" x="195.7483" y="-495.3391" font-family="Times,serif" font-size="14.00" fill="#000000">next_char</text>
</g>
<!-- 26&#45;&gt;27 -->
<g id="edge25" class="edge">
<title>26&#45;&gt;27</title>
<path fill="none" stroke="#000000" d="M163.6951,-531.9289C164.9384,-535.1512 166.2617,-538.581 167.5824,-542.004"/>
<polygon fill="#000000" stroke="#000000" points="164.3636,-543.3849 171.2287,-551.4546 170.8944,-540.8651 164.3636,-543.3849"/>
<text text-anchor="middle" x="138.0413" y="-541.1664" font-family="Times,serif" font-size="14.00" fill="#000000">next_char</text>
</g>
<!-- 31&#45;&gt;30 -->
<g id="edge29" class="edge">
<title>31&#45;&gt;30</title>
<path fill="none" stroke="#000000" d="M432.8907,-584.0407C432.9967,-584.0462 433.1027,-584.0517 433.2085,-584.0573"/>
<polygon fill="#000000" stroke="#000000" points="432.5923,-587.5298 442.7607,-584.5544 432.9561,-580.5393 432.5923,-587.5298"/>
<text text-anchor="middle" x="460.6471" y="-588.249" font-family="Times,serif" font-size="14.00" fill="#000000">next_char</text>
</g>
<!-- 31&#45;&gt;37 -->
<g id="edge30" class="edge">
<title>31&#45;&gt;37</title>
<path fill="none" stroke="#000000" d="M377.7718,-599.3223C380.5493,-612.0707 384.3016,-629.2931 387.4486,-643.7377"/>
<polygon fill="#000000" stroke="#000000" points="384.0619,-644.6352 389.6105,-653.6609 390.9015,-643.145 384.0619,-644.6352"/>
<text text-anchor="middle" x="356.5597" y="-625.73" font-family="Times,serif" font-size="14.00" fill="#000000">next_line</text>
</g>
<!-- 27&#45;&gt;28 -->
<g id="edge26" class="edge">
<title>27&#45;&gt;28</title>
<path fill="none" stroke="#000000" d="M203.5094,-562.854C212.9514,-560.5635 223.8359,-557.9231 234.0094,-555.4552"/>
<polygon fill="#000000" stroke="#000000" points="234.9732,-558.823 243.8662,-553.0641 233.3229,-552.0203 234.9732,-558.823"/>
<text text-anchor="middle" x="246.3569" y="-563.3546" font-family="Times,serif" font-size="14.00" fill="#000000">next_char</text>
</g>
<!-- 28&#45;&gt;25 -->
<g id="edge27" class="edge">
<title>28&#45;&gt;25</title>
<path fill="none" stroke="#000000" d="M289.4438,-534.5324C296.258,-530.3198 304.0981,-525.473 311.75,-520.7426"/>
<polygon fill="#000000" stroke="#000000" points="313.9079,-523.5234 320.5733,-515.2879 310.227,-517.5693 313.9079,-523.5234"/>
<text text-anchor="middle" x="334.0324" y="-531.8375" font-family="Times,serif" font-size="14.00" fill="#000000">end_of_line</text>
</g>
<!-- 30&#45;&gt;33 -->
<g id="edge28" class="edge">
<title>30&#45;&gt;33</title>
<path fill="none" stroke="#000000" d="M494.9677,-579.1575C501.1433,-577.4953 507.8625,-575.6867 514.4076,-573.925"/>
<polygon fill="#000000" stroke="#000000" points="515.6998,-577.2018 524.4464,-571.2229 513.8804,-570.4424 515.6998,-577.2018"/>
<text text-anchor="middle" x="532.2851" y="-580.7413" font-family="Times,serif" font-size="14.00" fill="#000000">next_char</text>
</g>
<!-- 33&#45;&gt;34 -->
<g id="edge31" class="edge">
<title>33&#45;&gt;34</title>
<path fill="none" stroke="#000000" d="M524.3947,-557.4607C517.8518,-555.6376 510.6826,-553.6399 503.7292,-551.7024"/>
<polygon fill="#000000" stroke="#000000" points="504.3666,-548.2467 493.7941,-548.934 502.4876,-554.9899 504.3666,-548.2467"/>
<text text-anchor="middle" x="527.8607" y="-541.9816" font-family="Times,serif" font-size="14.00" fill="#000000">next_char</text>
</g>
<!-- 37&#45;&gt;36 -->
<g id="edge34" class="edge">
<title>37&#45;&gt;36</title>
<path fill="none" stroke="#000000" d="M452.4727,-675.1818C452.9737,-675.2115 453.4733,-675.2412 453.9711,-675.2708"/>
<polygon fill="#000000" stroke="#000000" points="453.9031,-678.7728 464.093,-675.8718 454.3181,-671.7851 453.9031,-678.7728"/>
<text text-anchor="middle" x="480.8194" y="-662.6263" font-family="Times,serif" font-size="14.00" fill="#000000">next_char</text>
</g>
<!-- 37&#45;&gt;42 -->
<g id="edge35" class="edge">
<title>37&#45;&gt;42</title>
<path fill="none" stroke="#000000" d="M386.2495,-689.5487C382.5998,-698.4968 378.1001,-709.5288 374.0207,-719.5305"/>
<polygon fill="#000000" stroke="#000000" points="370.6643,-718.492 370.1284,-729.0733 377.1459,-721.1358 370.6643,-718.492"/>
<text text-anchor="middle" x="354.0846" y="-708.7396" font-family="Times,serif" font-size="14.00" fill="#000000">next_line</text>
</g>
<!-- 34&#45;&gt;31 -->
<g id="edge32" class="edge">
<title>34&#45;&gt;31</title>
<path fill="none" stroke="#000000" d="M445.206,-551.5797C437.1409,-554.8973 427.8208,-558.7311 418.6305,-562.5116"/>
<polygon fill="#000000" stroke="#000000" points="417.0749,-559.3668 409.1583,-566.408 419.7379,-565.8405 417.0749,-559.3668"/>
<text text-anchor="middle" x="398.4827" y="-544.4456" font-family="Times,serif" font-size="14.00" fill="#000000">end_of_line</text>
</g>
<!-- 36&#45;&gt;38 -->
<g id="edge33" class="edge">
<title>36&#45;&gt;38</title>
<path fill="none" stroke="#000000" d="M507.6834,-691.7467C514.4885,-697.5664 522.4947,-704.4133 529.9448,-710.7846"/>
<polygon fill="#000000" stroke="#000000" points="527.8528,-713.6008 537.7275,-717.4403 532.4024,-708.2809 527.8528,-713.6008"/>
<text text-anchor="middle" x="546.4116" y="-688.6657" font-family="Times,serif" font-size="14.00" fill="#000000">next_char</text>
</g>
<!-- 38&#45;&gt;39 -->
<g id="edge36" class="edge">
<title>38&#45;&gt;39</title>
<path fill="none" stroke="#000000" d="M527.6869,-728.7677C519.0671,-727.7904 509.3656,-726.6904 500.1628,-725.6469"/>
<polygon fill="#000000" stroke="#000000" points="500.3994,-722.1514 490.0687,-724.5024 499.6107,-729.1068 500.3994,-722.1514"/>
<text text-anchor="middle" x="500.1261" y="-714.6073" font-family="Times,serif" font-size="14.00" fill="#000000">next_char</text>
</g>
<!-- 42&#45;&gt;41 -->
<g id="edge39" class="edge">
<title>42&#45;&gt;41</title>
<path fill="none" stroke="#000000" d="M373.7238,-764.8918C376.0564,-768.6923 378.5642,-772.778 381.0361,-776.8054"/>
<polygon fill="#000000" stroke="#000000" points="378.0944,-778.7035 386.3085,-785.3953 384.0603,-775.0417 378.0944,-778.7035"/>
<text text-anchor="middle" x="349.7825" y="-775.0486" font-family="Times,serif" font-size="14.00" fill="#000000">next_char</text>
</g>
<!-- 42&#45;&gt;47 -->
<g id="edge40" class="edge">
<title>42&#45;&gt;47</title>
<path fill="none" stroke="#000000" d="M346.7843,-764.6569C340.123,-771.9766 332.2607,-780.6159 324.9919,-788.6031"/>
<polygon fill="#000000" stroke="#000000" points="322.1295,-786.5483 317.9873,-796.2999 327.3066,-791.2598 322.1295,-786.5483"/>
<text text-anchor="middle" x="309.8376" y="-780.83" font-family="Times,serif" font-size="14.00" fill="#000000">next_line</text>
</g>
<!-- 39&#45;&gt;37 -->
<g id="edge37" class="edge">
<title>39&#45;&gt;37</title>
<path fill="none" stroke="#000000" d="M444.6892,-708.1353C438.663,-703.8408 431.8099,-698.9571 425.1223,-694.1912"/>
<polygon fill="#000000" stroke="#000000" points="426.9894,-691.2239 416.8145,-688.2707 422.9269,-696.9245 426.9894,-691.2239"/>
<text text-anchor="middle" x="401.4702" y="-705.3633" font-family="Times,serif" font-size="14.00" fill="#000000">end_of_line</text>
</g>
<!-- 41&#45;&gt;44 -->
<g id="edge38" class="edge">
<title>41&#45;&gt;44</title>
<path fill="none" stroke="#000000" d="M423.7784,-801.5483C423.9416,-801.543 424.1049,-801.5376 424.2684,-801.5323"/>
<polygon fill="#000000" stroke="#000000" points="421.7693,-805.1156 431.6503,-801.2924 421.5418,-798.1193 421.7693,-805.1156"/>
<text text-anchor="middle" x="424.0234" y="-788.9403" font-family="Times,serif" font-size="14.00" fill="#000000">next_char</text>
</g>
<!-- 44&#45;&gt;42 -->
<g id="edge41" class="edge">
<title>44&#45;&gt;42</title>
<path fill="none" stroke="#000000" d="M437.9417,-788.8372C427.0276,-782.7722 413.3187,-775.154 400.6075,-768.0903"/>
<polygon fill="#000000" stroke="#000000" points="402.0235,-764.873 391.5824,-763.0749 398.6232,-770.9918 402.0235,-764.873"/>
<text text-anchor="middle" x="452.7101" y="-765.8637" font-family="Times,serif" font-size="14.00" fill="#000000">end_of_line</text>
</g>
<!-- 47&#45;&gt;46 -->
<g id="edge43" class="edge">
<title>47&#45;&gt;46</title>
<path fill="none" stroke="#000000" d="M296.977,-832.2405C293.7189,-844.3612 289.3787,-860.5078 285.6935,-874.2179"/>
<polygon fill="#000000" stroke="#000000" points="282.2477,-873.5544 283.0318,-884.1202 289.0077,-875.3715 282.2477,-873.5544"/>
<text text-anchor="middle" x="318.9327" y="-840.6292" font-family="Times,serif" font-size="14.00" fill="#000000">next_char</text>
</g>
<!-- 47&#45;&gt;51 -->
<g id="edge44" class="edge">
<title>47&#45;&gt;51</title>
<path fill="none" stroke="#000000" d="M265.9185,-828.5317C257.0896,-832.0997 247.5248,-835.965 238.3176,-839.6858"/>
<polygon fill="#000000" stroke="#000000" points="236.8582,-836.5005 228.8981,-843.4924 239.481,-842.9906 236.8582,-836.5005"/>
<text text-anchor="middle" x="226.0676" y="-821.5088" font-family="Times,serif" font-size="14.00" fill="#000000">next_line</text>
</g>
<!-- 46&#45;&gt;48 -->
<g id="edge42" class="edge">
<title>46&#45;&gt;48</title>
<path fill="none" stroke="#000000" d="M305.2779,-903.9624C305.3695,-903.969 305.4612,-903.9755 305.5529,-903.982"/>
<polygon fill="#000000" stroke="#000000" points="303.904,-907.3734 314.1272,-904.592 304.4008,-900.3911 303.904,-907.3734"/>
<text text-anchor="middle" x="333.0129" y="-891.3722" font-family="Times,serif" font-size="14.00" fill="#000000">next_char</text>
</g>
<!-- 48&#45;&gt;47 -->
<g id="edge45" class="edge">
<title>48&#45;&gt;47</title>
<path fill="none" stroke="#000000" d="M333.7771,-889.114C328.0883,-875.7173 320.1166,-856.9444 313.5659,-841.5178"/>
<polygon fill="#000000" stroke="#000000" points="316.6348,-839.7901 309.5046,-831.9536 310.1916,-842.5261 316.6348,-839.7901"/>
<text text-anchor="middle" x="290.236" y="-869.5159" font-family="Times,serif" font-size="14.00" fill="#000000">end_of_line</text>
</g>
<!-- 51&#45;&gt;2 -->
<g id="edge47" class="edge">
<title>51&#45;&gt;2</title>
<path fill="none" stroke="#000000" d="M138.4112,-865.519C135.3001,-865.9472 132.1558,-866.3799 129.0076,-866.8131"/>
<polygon fill="#000000" stroke="#000000" points="128.4053,-863.363 118.9759,-868.1937 129.3598,-870.2976 128.4053,-863.363"/>
<text text-anchor="middle" x="96.3812" y="-853.5661" font-family="Times,serif" font-size="14.00" fill="#000000">end_of_input</text>
</g>
<!-- 51&#45;&gt;50 -->
<g id="edge48" class="edge">
<title>51&#45;&gt;50</title>
<path fill="none" stroke="#000000" d="M179.2127,-875.7511C173.3406,-887.0327 166.989,-901.8488 162.4797,-914.6557"/>
<polygon fill="#000000" stroke="#000000" points="159.0782,-913.7975 159.3027,-924.39 165.7327,-915.9695 159.0782,-913.7975"/>
<text text-anchor="middle" x="143.2487" y="-899.4034" font-family="Times,serif" font-size="14.00" fill="#000000">next_char</text>
</g>
<!-- 50&#45;&gt;51 -->
<g id="edge46" class="edge">
<title>50&#45;&gt;51</title>
<path fill="none" stroke="#000000" d="M170.5413,-926.2748C176.6321,-914.8425 183.3723,-899.2425 188.1001,-885.8298"/>
<polygon fill="#000000" stroke="#000000" points="191.4987,-886.6973 191.2792,-876.1047 184.8452,-884.5222 191.4987,-886.6973"/>
<text text-anchor="middle" x="212.7562" y="-910.2523" font-family="Times,serif" font-size="14.00" fill="#000000">end_of_line</text>
</g>
<!-- 0 -->
<g id="node1" class="node">
<title>0</title>
<ellipse fill="#ffffff" stroke="#000000" cx="295.9739" cy="-89.5852" rx="27" ry="18"/>
<text text-anchor="middle" x="295.9739" y="-85.3852" font-family="Times,serif" font-size="14.00" fill="#000000">8</text>
</g>
<!-- 8 -->
<g id="node2" class="node">
<title>8</title>
<ellipse fill="#ffffff" stroke="#000000" cx="385.8735" cy="-163.0745" rx="27" ry="18"/>
<text text-anchor="middle" x="385.8735" y="-158.8745" font-family="Times,serif" font-size="14.00" fill="#000000">3</text>
</g>
<!-- 2 -->
<g id="node3" class="node">
<title>2</title>
<ellipse fill="#ffffff" stroke="#000000" cx="62.5331" cy="-875.9614" rx="62.5663" ry="18"/>
<text text-anchor="middle" x="62.5331" y="-871.7614" font-family="Times,serif" font-size="14.00" fill="#000000">end_of_input</text>
</g>
<!-- 3 -->
<g id="node4" class="node">
<title>3</title>
<ellipse fill="#ffffff" stroke="#000000" cx="258.9454" cy="-214.9613" rx="30.7789" ry="18"/>
<text text-anchor="middle" x="258.9454" y="-210.7613" font-family="Times,serif" font-size="14.00" fill="#000000">input</text>
</g>
<!-- 4 -->
<g id="node5" class="node">
<title>4</title>
<ellipse fill="#ffffff" stroke="#000000" cx="357.7891" cy="-243.614" rx="59.6935" ry="18"/>
<text text-anchor="middle" x="357.7891" y="-239.414" font-family="Times,serif" font-size="14.00" fill="#000000">fuel_amount</text>
</g>
<!-- 6 -->
<g id="node6" class="node">
<title>6</title>
<ellipse fill="#ffffff" stroke="#000000" cx="323.8335" cy="-163.1214" rx="27" ry="18"/>
<text text-anchor="middle" x="323.8335" y="-158.9214" font-family="Times,serif" font-size="14.00" fill="#000000">3</text>
</g>
<!-- 11 -->
<g id="node7" class="node">
<title>11</title>
<ellipse fill="#ffffff" stroke="#000000" cx="386.7918" cy="-326.9196" rx="59.6935" ry="18"/>
<text text-anchor="middle" x="386.7918" y="-322.7196" font-family="Times,serif" font-size="14.00" fill="#000000">fuel_amount</text>
</g>
<!-- 5 -->
<g id="node8" class="node">
<title>5</title>
<ellipse fill="#ffffff" stroke="#000000" cx="374.8929" cy="-79.3961" rx="27" ry="18"/>
<text text-anchor="middle" x="374.8929" y="-75.1961" font-family="Times,serif" font-size="14.00" fill="#000000">3</text>
</g>
<!-- 7 -->
<g id="node9" class="node">
<title>7</title>
<ellipse fill="#ffffff" stroke="#000000" cx="324.3465" cy="-18" rx="27" ry="18"/>
<text text-anchor="middle" x="324.3465" y="-13.8" font-family="Times,serif" font-size="14.00" fill="#000000">5</text>
</g>
<!-- 10 -->
<g id="node10" class="node">
<title>10</title>
<ellipse fill="#ffffff" stroke="#000000" cx="459.2568" cy="-282.8968" rx="27" ry="18"/>
<text text-anchor="middle" x="459.2568" y="-278.6968" font-family="Times,serif" font-size="14.00" fill="#000000">1</text>
</g>
<!-- 12 -->
<g id="node11" class="node">
<title>12</title>
<ellipse fill="#ffffff" stroke="#000000" cx="538.8727" cy="-241.0933" rx="27" ry="18"/>
<text text-anchor="middle" x="538.8727" y="-236.8933" font-family="Times,serif" font-size="14.00" fill="#000000">1</text>
</g>
<!-- 18 -->
<g id="node12" class="node">
<title>18</title>
<ellipse fill="#ffffff" stroke="#000000" cx="348.298" cy="-407.6065" rx="59.6935" ry="18"/>
<text text-anchor="middle" x="348.298" y="-403.4065" font-family="Times,serif" font-size="14.00" fill="#000000">fuel_amount</text>
</g>
<!-- 13 -->
<g id="node13" class="node">
<title>13</title>
<ellipse fill="#ffffff" stroke="#000000" cx="615.9296" cy="-250.795" rx="27" ry="18"/>
<text text-anchor="middle" x="615.9296" y="-246.595" font-family="Times,serif" font-size="14.00" fill="#000000">1</text>
</g>
<!-- 14 -->
<g id="node14" class="node">
<title>14</title>
<ellipse fill="#ffffff" stroke="#000000" cx="567.4933" cy="-313.7517" rx="27" ry="18"/>
<text text-anchor="middle" x="567.4933" y="-309.5517" font-family="Times,serif" font-size="14.00" fill="#000000">9</text>
</g>
<!-- 15 -->
<g id="node15" class="node">
<title>15</title>
<ellipse fill="#ffffff" stroke="#000000" cx="481.6994" cy="-336.7009" rx="27" ry="18"/>
<text text-anchor="middle" x="481.6994" y="-332.5009" font-family="Times,serif" font-size="14.00" fill="#000000">2</text>
</g>
<!-- 19 -->
<g id="node16" class="node">
<title>19</title>
<ellipse fill="#ffffff" stroke="#000000" cx="253.4059" cy="-402.8256" rx="27" ry="18"/>
<text text-anchor="middle" x="253.4059" y="-398.6256" font-family="Times,serif" font-size="14.00" fill="#000000">3</text>
</g>
<!-- 25 -->
<g id="node17" class="node">
<title>25</title>
<ellipse fill="#ffffff" stroke="#000000" cx="346.82" cy="-499.062" rx="59.6935" ry="18"/>
<text text-anchor="middle" x="346.82" y="-494.862" font-family="Times,serif" font-size="14.00" fill="#000000">fuel_amount</text>
</g>
<!-- 20 -->
<g id="node18" class="node">
<title>20</title>
<ellipse fill="#ffffff" stroke="#000000" cx="158.9638" cy="-384.9655" rx="27" ry="18"/>
<text text-anchor="middle" x="158.9638" y="-380.7655" font-family="Times,serif" font-size="14.00" fill="#000000">7</text>
</g>
<!-- 21 -->
<g id="node19" class="node">
<title>21</title>
<ellipse fill="#ffffff" stroke="#000000" cx="178.8119" cy="-329.5058" rx="27" ry="18"/>
<text text-anchor="middle" x="178.8119" y="-325.3058" font-family="Times,serif" font-size="14.00" fill="#000000">2</text>
</g>
<!-- 22 -->
<g id="node20" class="node">
<title>22</title>
<ellipse fill="#ffffff" stroke="#000000" cx="269.9531" cy="-358.7984" rx="27" ry="18"/>
<text text-anchor="middle" x="269.9531" y="-354.5984" font-family="Times,serif" font-size="14.00" fill="#000000">8</text>
</g>
<!-- 24 -->
<g id="node21" class="node">
<title>24</title>
<ellipse fill="#ffffff" stroke="#000000" cx="251.9385" cy="-502.8083" rx="27" ry="18"/>
<text text-anchor="middle" x="251.9385" y="-498.6083" font-family="Times,serif" font-size="14.00" fill="#000000">1</text>
</g>
<!-- 26 -->
<g id="node22" class="node">
<title>26</title>
<ellipse fill="#ffffff" stroke="#000000" cx="156.8979" cy="-514.3115" rx="27" ry="18"/>
<text text-anchor="middle" x="156.8979" y="-510.1115" font-family="Times,serif" font-size="14.00" fill="#000000">2</text>
</g>
<!-- 31 -->
<g id="node23" class="node">
<title>31</title>
<ellipse fill="#ffffff" stroke="#000000" cx="373.7722" cy="-580.9641" rx="59.6935" ry="18"/>
<text text-anchor="middle" x="373.7722" y="-576.7641" font-family="Times,serif" font-size="14.00" fill="#000000">fuel_amount</text>
</g>
<!-- 27 -->
<g id="node24" class="node">
<title>27</title>
<ellipse fill="#ffffff" stroke="#000000" cx="178.0133" cy="-569.039" rx="27" ry="18"/>
<text text-anchor="middle" x="178.0133" y="-564.839" font-family="Times,serif" font-size="14.00" fill="#000000">4</text>
</g>
<!-- 28 -->
<g id="node25" class="node">
<title>28</title>
<ellipse fill="#ffffff" stroke="#000000" cx="269.5431" cy="-546.8352" rx="27" ry="18"/>
<text text-anchor="middle" x="269.5431" y="-542.6352" font-family="Times,serif" font-size="14.00" fill="#000000">0</text>
</g>
<!-- 30 -->
<g id="node26" class="node">
<title>30</title>
<ellipse fill="#ffffff" stroke="#000000" cx="469.7073" cy="-585.9567" rx="27" ry="18"/>
<text text-anchor="middle" x="469.7073" y="-581.7567" font-family="Times,serif" font-size="14.00" fill="#000000">4</text>
</g>
<!-- 33 -->
<g id="node27" class="node">
<title>33</title>
<ellipse fill="#ffffff" stroke="#000000" cx="549.5425" cy="-564.468" rx="27" ry="18"/>
<text text-anchor="middle" x="549.5425" y="-560.268" font-family="Times,serif" font-size="14.00" fill="#000000">1</text>
</g>
<!-- 37 -->
<g id="node28" class="node">
<title>37</title>
<ellipse fill="#ffffff" stroke="#000000" cx="393.5368" cy="-671.6821" rx="59.6935" ry="18"/>
<text text-anchor="middle" x="393.5368" y="-667.4821" font-family="Times,serif" font-size="14.00" fill="#000000">fuel_amount</text>
</g>
<!-- 34 -->
<g id="node29" class="node">
<title>34</title>
<ellipse fill="#ffffff" stroke="#000000" cx="468.6619" cy="-541.9311" rx="27" ry="18"/>
<text text-anchor="middle" x="468.6619" y="-537.7311" font-family="Times,serif" font-size="14.00" fill="#000000">1</text>
</g>
<!-- 36 -->
<g id="node30" class="node">
<title>36</title>
<ellipse fill="#ffffff" stroke="#000000" cx="490.988" cy="-677.4689" rx="27" ry="18"/>
<text text-anchor="middle" x="490.988" y="-673.2689" font-family="Times,serif" font-size="14.00" fill="#000000">1</text>
</g>
<!-- 38 -->
<g id="node31" class="node">
<title>38</title>
<ellipse fill="#ffffff" stroke="#000000" cx="554.5321" cy="-731.8115" rx="27" ry="18"/>
<text text-anchor="middle" x="554.5321" y="-727.6115" font-family="Times,serif" font-size="14.00" fill="#000000">3</text>
</g>
<!-- 42 -->
<g id="node32" class="node">
<title>42</title>
<ellipse fill="#ffffff" stroke="#000000" cx="362.7868" cy="-747.0729" rx="59.6935" ry="18"/>
<text text-anchor="middle" x="362.7868" y="-742.8729" font-family="Times,serif" font-size="14.00" fill="#000000">fuel_amount</text>
</g>
<!-- 39 -->
<g id="node33" class="node">
<title>39</title>
<ellipse fill="#ffffff" stroke="#000000" cx="463.4153" cy="-721.4803" rx="27" ry="18"/>
<text text-anchor="middle" x="463.4153" y="-717.2803" font-family="Times,serif" font-size="14.00" fill="#000000">5</text>
</g>
<!-- 41 -->
<g id="node34" class="node">
<title>41</title>
<ellipse fill="#ffffff" stroke="#000000" cx="396.762" cy="-802.4266" rx="27" ry="18"/>
<text text-anchor="middle" x="396.762" y="-798.2266" font-family="Times,serif" font-size="14.00" fill="#000000">4</text>
</g>
<!-- 44 -->
<g id="node35" class="node">
<title>44</title>
<ellipse fill="#ffffff" stroke="#000000" cx="458.7682" cy="-800.4108" rx="27" ry="18"/>
<text text-anchor="middle" x="458.7682" y="-796.2108" font-family="Times,serif" font-size="14.00" fill="#000000">3</text>
</g>
<!-- 47 -->
<g id="node36" class="node">
<title>47</title>
<ellipse fill="#ffffff" stroke="#000000" cx="301.8803" cy="-813.9989" rx="59.6935" ry="18"/>
<text text-anchor="middle" x="301.8803" y="-809.7989" font-family="Times,serif" font-size="14.00" fill="#000000">fuel_amount</text>
</g>
<!-- 46 -->
<g id="node37" class="node">
<title>46</title>
<ellipse fill="#ffffff" stroke="#000000" cx="278.2157" cy="-902.0372" rx="27" ry="18"/>
<text text-anchor="middle" x="278.2157" y="-897.8372" font-family="Times,serif" font-size="14.00" fill="#000000">1</text>
</g>
<!-- 48 -->
<g id="node38" class="node">
<title>48</title>
<ellipse fill="#ffffff" stroke="#000000" cx="341.1665" cy="-906.5157" rx="27" ry="18"/>
<text text-anchor="middle" x="341.1665" y="-902.3157" font-family="Times,serif" font-size="14.00" fill="#000000">2</text>
</g>
<!-- 51 -->
<g id="node39" class="node">
<title>51</title>
<ellipse fill="#ffffff" stroke="#000000" cx="192.9741" cy="-858.01" rx="59.6935" ry="18"/>
<text text-anchor="middle" x="192.9741" y="-853.81" font-family="Times,serif" font-size="14.00" fill="#000000">fuel_amount</text>
</g>
<!-- 50 -->
<g id="node40" class="node">
<title>50</title>
<ellipse fill="#ffffff" stroke="#000000" cx="157.6357" cy="-942.3906" rx="27" ry="18"/>
<text text-anchor="middle" x="157.6357" y="-938.1906" font-family="Times,serif" font-size="14.00" fill="#000000">2</text>
</g>
</g>
</svg>
